<?xml version="1.0" standalone="no"?>
<!DOCTYPE svg PUBLIC "-//W3C//DTD SVG 20010904//EN"
 "http://www.w3.org/TR/2001/REC-SVG-20010904/DTD/svg10.dtd">
<svg version="1.0" xmlns="http://www.w3.org/2000/svg"
 width="68.000000pt" height="28.000000pt" viewBox="0 0 68.000000 28.000000"
 preserveAspectRatio="xMidYMid meet">
<metadata>
Created by potrace 1.16, written by Peter Selinger 2001-2019
</metadata>
<g transform="translate(0.000000,28.000000) scale(0.005312,-0.003894)"
fill="#000000" stroke="none">
<path d="M6336 6139 c-24 -19 -27 -27 -24 -72 2 -40 8 -54 29 -70 53 -39 172
-34 215 8 34 34 33 97 -1 130 -22 23 -32 25 -108 25 -71 0 -89 -3 -111 -21z"/>
<path d="M6752 5523 l3 -608 113 -3 112 -3 0 611 0 610 -115 0 -115 0 2 -607z"/>
<path d="M3740 6073 c0 -5 13 -53 29 -108 44 -150 291 -996 300 -1025 l8 -25
150 -3 c112 -2 153 1 160 10 6 7 33 90 61 183 28 94 92 310 142 480 51 171
104 352 120 403 l28 92 -123 0 -124 0 -14 -52 c-9 -29 -64 -228 -123 -443 -59
-214 -108 -392 -110 -394 -2 -2 -6 -2 -8 0 -3 2 -60 203 -128 447 l-123 442
-122 0 c-68 0 -123 -3 -123 -7z"/>
<path d="M5037 5910 c-152 -39 -265 -169 -303 -350 -21 -101 -14 -279 15 -371
65 -204 219 -308 443 -297 112 5 184 35 260 108 l48 46 0 100 -1 99 -21 -30
c-75 -103 -146 -139 -273 -139 -112 0 -169 22 -214 84 -27 37 -60 144 -48 156
3 3 137 5 300 4 l295 -1 6 23 c11 42 6 192 -9 261 -31 149 -103 246 -211 287
-66 25 -222 36 -287 20z m206 -214 c25 -7 59 -24 77 -36 35 -25 70 -87 70
-125 l0 -25 -226 0 -226 0 6 25 c13 50 26 74 60 108 60 60 149 80 239 53z"/>
<path d="M6005 5906 c-66 -30 -125 -122 -143 -219 -5 -33 -8 -16 -12 78 l-5
120 -108 3 -107 3 2 -488 3 -488 111 -3 112 -3 4 278 c5 305 12 344 67 420 56
77 172 95 246 39 l35 -27 0 130 c0 130 0 131 -26 148 -35 23 -139 28 -179 9z"/>
<path d="M7450 5904 c-215 -46 -324 -238 -306 -539 13 -225 92 -367 244 -438
59 -27 79 -31 178 -35 94 -4 124 -1 181 16 161 50 249 154 289 344 22 103 14
310 -15 392 -41 115 -98 184 -189 230 -85 44 -258 57 -382 30z m237 -229 c123
-37 182 -197 142 -387 -36 -167 -156 -240 -317 -193 -103 31 -156 131 -156
300 -1 120 12 167 60 223 57 67 163 89 271 57z"/>
<path d="M8434 5900 c-158 -51 -234 -192 -234 -440 0 -174 33 -277 115 -363
48 -50 95 -74 174 -89 132 -25 244 20 313 125 l40 62 -5 -91 c-10 -167 -51
-221 -184 -243 -113 -18 -288 23 -339 80 -9 11 -21 19 -26 19 -5 0 -7 -41 -6
-91 l3 -92 51 -28 c88 -50 199 -72 333 -66 64 3 132 10 151 16 60 18 143 74
177 119 61 81 63 96 63 609 l0 463 -105 0 -105 0 0 -72 0 -71 -23 44 c-61 114
-228 161 -393 109z m320 -228 c65 -45 81 -88 81 -217 0 -93 -4 -116 -22 -150
-44 -82 -98 -115 -189 -115 -136 0 -214 94 -214 259 0 182 82 268 245 256 44
-4 70 -12 99 -33z"/>
<path d="M6330 5400 l0 -490 115 0 115 0 0 489 0 490 -32 -10 c-43 -12 -140
-12 -172 1 l-26 10 0 -490z"/>
<path d="M5240 4305 c-14 -2 -105 -9 -203 -16 -98 -6 -179 -15 -182 -19 -2 -4
21 -29 53 -56 410 -352 651 -786 716 -1292 71 -550 -90 -1099 -447 -1529 -40
-49 -131 -142 -201 -208 l-127 -120 32 -6 c17 -4 131 -13 253 -19 269 -16 718
-8 931 15 867 93 1518 389 1988 903 134 147 243 301 375 531 6 11 15 8 45 -12
79 -53 203 -56 283 -7 43 27 102 94 110 125 l6 25 474 0 474 0 0 85 0 85 -474
0 -474 0 -6 23 c-9 38 -82 113 -134 138 -88 43 -221 26 -293 -38 -15 -12 -19
-9 -42 30 -56 96 -241 329 -352 445 -492 513 -1125 803 -1960 898 -128 15
-773 29 -845 19z m810 -190 c723 -79 1278 -306 1725 -705 199 -178 403 -429
539 -662 l28 -48 -57 -107 c-124 -235 -260 -420 -445 -603 -477 -475 -1127
-727 -2015 -780 -191 -11 -480 -13 -538 -3 l-38 6 34 36 c54 57 158 198 215
293 438 724 419 1626 -47 2324 -44 65 -107 151 -140 189 l-61 70 48 7 c82 11
599 0 752 -17z"/>
<path d="M4620 4214 l-52 -65 43 -36 c76 -64 219 -215 283 -300 59 -79 178
-268 192 -305 6 -17 -48 -18 -1050 -18 l-1056 0 0 -90 0 -90 1095 0 1095 0 11
-27 c22 -58 69 -252 85 -353 22 -141 22 -410 0 -552 -14 -89 -79 -354 -90
-365 -1 -1 -496 -3 -1099 -3 l-1097 0 0 -90 0 -90 1061 0 1061 0 -38 -67
c-108 -197 -263 -398 -395 -512 -41 -36 -80 -70 -88 -77 -11 -10 -4 -24 39
-78 28 -36 56 -66 61 -66 18 0 287 277 348 358 213 283 354 616 408 966 24
153 24 452 0 602 -55 350 -187 666 -399 954 -69 93 -302 335 -345 358 -19 11
-26 6 -73 -54z"/>
</g>
</svg>
